<mxfile host="app.diagrams.net" modified="2023-11-14T19:44:37.297Z" agent="Mozilla/5.0 (Windows NT 10.0; Win64; x64) AppleWebKit/537.36 (KHTML, like Gecko) Chrome/116.0.5845.837 YaBrowser/23.9.4.837 Yowser/2.5 Safari/537.36" etag="OheIfvqnCjoLouxe-z9-" version="22.1.1" type="device">
  <diagram id="C5RBs43oDa-KdzZeNtuy" name="Page-1">
    <mxGraphModel dx="1002" dy="567" grid="1" gridSize="10" guides="1" tooltips="1" connect="1" arrows="1" fold="1" page="1" pageScale="1" pageWidth="827" pageHeight="1169" math="0" shadow="0">
      <root>
        <mxCell id="WIyWlLk6GJQsqaUBKTNV-0" />
        <mxCell id="WIyWlLk6GJQsqaUBKTNV-1" parent="WIyWlLk6GJQsqaUBKTNV-0" />
        <mxCell id="WIyWlLk6GJQsqaUBKTNV-2" value="" style="rounded=0;html=1;jettySize=auto;orthogonalLoop=1;fontSize=11;endArrow=block;endFill=0;endSize=8;strokeWidth=1;shadow=0;labelBackgroundColor=none;edgeStyle=orthogonalEdgeStyle;" parent="WIyWlLk6GJQsqaUBKTNV-1" target="YZCgXVp1-A0Gv4GDbvZ--7" edge="1">
          <mxGeometry relative="1" as="geometry">
            <mxPoint x="220" y="120" as="sourcePoint" />
            <mxPoint x="220" y="150" as="targetPoint" />
          </mxGeometry>
        </mxCell>
        <mxCell id="YZCgXVp1-A0Gv4GDbvZ--2" value="" style="edgeStyle=orthogonalEdgeStyle;rounded=0;orthogonalLoop=1;jettySize=auto;html=1;" edge="1" parent="WIyWlLk6GJQsqaUBKTNV-1" source="YZCgXVp1-A0Gv4GDbvZ--1">
          <mxGeometry relative="1" as="geometry">
            <mxPoint x="220" y="80" as="targetPoint" />
          </mxGeometry>
        </mxCell>
        <mxCell id="YZCgXVp1-A0Gv4GDbvZ--1" value="start" style="ellipse;whiteSpace=wrap;html=1;" vertex="1" parent="WIyWlLk6GJQsqaUBKTNV-1">
          <mxGeometry x="160" y="10" width="120" height="50" as="geometry" />
        </mxCell>
        <mxCell id="YZCgXVp1-A0Gv4GDbvZ--4" value="number[size]&lt;br&gt;" style="shape=parallelogram;perimeter=parallelogramPerimeter;whiteSpace=wrap;html=1;fixedSize=1;" vertex="1" parent="WIyWlLk6GJQsqaUBKTNV-1">
          <mxGeometry x="145" y="80" width="150" height="40" as="geometry" />
        </mxCell>
        <mxCell id="YZCgXVp1-A0Gv4GDbvZ--6" value="&lt;h1&gt;1&lt;/h1&gt;&lt;p&gt;Задаем два массива: 1 вводит пользователь, второй пустой.&lt;/p&gt;&lt;p&gt;(по программе проще будет сделать заранее подготовленный массив)&lt;/p&gt;" style="text;html=1;strokeColor=none;fillColor=none;spacing=5;spacingTop=-20;whiteSpace=wrap;overflow=hidden;rounded=0;" vertex="1" parent="WIyWlLk6GJQsqaUBKTNV-1">
          <mxGeometry x="330" y="60" width="270" height="120" as="geometry" />
        </mxCell>
        <mxCell id="YZCgXVp1-A0Gv4GDbvZ--9" value="" style="edgeStyle=orthogonalEdgeStyle;rounded=0;orthogonalLoop=1;jettySize=auto;html=1;" edge="1" parent="WIyWlLk6GJQsqaUBKTNV-1" source="YZCgXVp1-A0Gv4GDbvZ--7">
          <mxGeometry relative="1" as="geometry">
            <mxPoint x="220" y="260" as="targetPoint" />
          </mxGeometry>
        </mxCell>
        <mxCell id="YZCgXVp1-A0Gv4GDbvZ--7" value="number2[size]&lt;br&gt;count = 0;" style="rounded=0;whiteSpace=wrap;html=1;" vertex="1" parent="WIyWlLk6GJQsqaUBKTNV-1">
          <mxGeometry x="160" y="150" width="120" height="60" as="geometry" />
        </mxCell>
        <mxCell id="YZCgXVp1-A0Gv4GDbvZ--13" value="" style="edgeStyle=orthogonalEdgeStyle;rounded=0;orthogonalLoop=1;jettySize=auto;html=1;" edge="1" parent="WIyWlLk6GJQsqaUBKTNV-1" source="YZCgXVp1-A0Gv4GDbvZ--10" target="YZCgXVp1-A0Gv4GDbvZ--12">
          <mxGeometry relative="1" as="geometry" />
        </mxCell>
        <mxCell id="YZCgXVp1-A0Gv4GDbvZ--10" value="i=0, i&amp;lt;number[size.lenght]; i++;" style="shape=hexagon;perimeter=hexagonPerimeter2;whiteSpace=wrap;html=1;fixedSize=1;" vertex="1" parent="WIyWlLk6GJQsqaUBKTNV-1">
          <mxGeometry x="120" y="260" width="200" height="90" as="geometry" />
        </mxCell>
        <mxCell id="YZCgXVp1-A0Gv4GDbvZ--11" value="&lt;h1&gt;2&lt;/h1&gt;&lt;p&gt;Создаем цикл for в котором будем по одной ячейке из одного массива переносить в другой.&amp;nbsp;&lt;br&gt;&lt;/p&gt;" style="text;html=1;strokeColor=none;fillColor=none;spacing=5;spacingTop=-20;whiteSpace=wrap;overflow=hidden;rounded=0;" vertex="1" parent="WIyWlLk6GJQsqaUBKTNV-1">
          <mxGeometry x="320" y="190" width="330" height="110" as="geometry" />
        </mxCell>
        <mxCell id="YZCgXVp1-A0Gv4GDbvZ--16" value="" style="edgeStyle=orthogonalEdgeStyle;rounded=0;orthogonalLoop=1;jettySize=auto;html=1;" edge="1" parent="WIyWlLk6GJQsqaUBKTNV-1" source="YZCgXVp1-A0Gv4GDbvZ--12" target="YZCgXVp1-A0Gv4GDbvZ--15">
          <mxGeometry relative="1" as="geometry" />
        </mxCell>
        <mxCell id="YZCgXVp1-A0Gv4GDbvZ--12" value="i&amp;lt;=3;" style="rhombus;whiteSpace=wrap;html=1;" vertex="1" parent="WIyWlLk6GJQsqaUBKTNV-1">
          <mxGeometry x="148.75" y="380" width="142.5" height="110" as="geometry" />
        </mxCell>
        <mxCell id="YZCgXVp1-A0Gv4GDbvZ--14" style="edgeStyle=orthogonalEdgeStyle;rounded=0;orthogonalLoop=1;jettySize=auto;html=1;exitX=0.5;exitY=1;exitDx=0;exitDy=0;" edge="1" parent="WIyWlLk6GJQsqaUBKTNV-1" source="YZCgXVp1-A0Gv4GDbvZ--11" target="YZCgXVp1-A0Gv4GDbvZ--11">
          <mxGeometry relative="1" as="geometry" />
        </mxCell>
        <mxCell id="YZCgXVp1-A0Gv4GDbvZ--15" value="number[i] = number2[count];&lt;br&gt;count++;" style="whiteSpace=wrap;html=1;" vertex="1" parent="WIyWlLk6GJQsqaUBKTNV-1">
          <mxGeometry x="130" y="510" width="180" height="70" as="geometry" />
        </mxCell>
        <mxCell id="YZCgXVp1-A0Gv4GDbvZ--17" value="" style="endArrow=classic;html=1;rounded=0;exitX=0.5;exitY=1;exitDx=0;exitDy=0;entryX=0;entryY=0.5;entryDx=0;entryDy=0;" edge="1" parent="WIyWlLk6GJQsqaUBKTNV-1" source="YZCgXVp1-A0Gv4GDbvZ--15" target="YZCgXVp1-A0Gv4GDbvZ--10">
          <mxGeometry width="50" height="50" relative="1" as="geometry">
            <mxPoint x="390" y="540" as="sourcePoint" />
            <mxPoint x="440" y="490" as="targetPoint" />
            <Array as="points">
              <mxPoint x="220" y="610" />
              <mxPoint x="70" y="610" />
              <mxPoint x="70" y="305" />
            </Array>
          </mxGeometry>
        </mxCell>
        <mxCell id="YZCgXVp1-A0Gv4GDbvZ--18" value="no" style="text;html=1;strokeColor=none;fillColor=none;align=center;verticalAlign=middle;whiteSpace=wrap;rounded=0;" vertex="1" parent="WIyWlLk6GJQsqaUBKTNV-1">
          <mxGeometry x="280" y="410" width="60" height="30" as="geometry" />
        </mxCell>
        <mxCell id="YZCgXVp1-A0Gv4GDbvZ--19" value="yes" style="text;html=1;strokeColor=none;fillColor=none;align=center;verticalAlign=middle;whiteSpace=wrap;rounded=0;" vertex="1" parent="WIyWlLk6GJQsqaUBKTNV-1">
          <mxGeometry x="160" y="480" width="60" height="30" as="geometry" />
        </mxCell>
        <mxCell id="YZCgXVp1-A0Gv4GDbvZ--20" value="" style="endArrow=classic;html=1;rounded=0;" edge="1" parent="WIyWlLk6GJQsqaUBKTNV-1">
          <mxGeometry width="50" height="50" relative="1" as="geometry">
            <mxPoint x="291.25" y="434.5" as="sourcePoint" />
            <mxPoint x="451.25" y="434.5" as="targetPoint" />
          </mxGeometry>
        </mxCell>
        <mxCell id="YZCgXVp1-A0Gv4GDbvZ--24" value="" style="edgeStyle=orthogonalEdgeStyle;rounded=0;orthogonalLoop=1;jettySize=auto;html=1;" edge="1" parent="WIyWlLk6GJQsqaUBKTNV-1" source="YZCgXVp1-A0Gv4GDbvZ--22" target="YZCgXVp1-A0Gv4GDbvZ--23">
          <mxGeometry relative="1" as="geometry" />
        </mxCell>
        <mxCell id="YZCgXVp1-A0Gv4GDbvZ--22" value="print number2[size]" style="shape=document;whiteSpace=wrap;html=1;boundedLbl=1;" vertex="1" parent="WIyWlLk6GJQsqaUBKTNV-1">
          <mxGeometry x="450" y="400" width="120" height="80" as="geometry" />
        </mxCell>
        <mxCell id="YZCgXVp1-A0Gv4GDbvZ--23" value="finish" style="ellipse;whiteSpace=wrap;html=1;" vertex="1" parent="WIyWlLk6GJQsqaUBKTNV-1">
          <mxGeometry x="445" y="525" width="130" height="55" as="geometry" />
        </mxCell>
        <mxCell id="YZCgXVp1-A0Gv4GDbvZ--25" value="&lt;h1&gt;3&lt;/h1&gt;&lt;div&gt;Создаем цикл ЕСЛИ, для отрезка всех ненужных ячеек&lt;/div&gt;" style="text;html=1;strokeColor=none;fillColor=none;spacing=5;spacingTop=-20;whiteSpace=wrap;overflow=hidden;rounded=0;" vertex="1" parent="WIyWlLk6GJQsqaUBKTNV-1">
          <mxGeometry x="580" y="300" width="190" height="90" as="geometry" />
        </mxCell>
        <mxCell id="YZCgXVp1-A0Gv4GDbvZ--26" value="&lt;h1&gt;4&lt;/h1&gt;&lt;div&gt;Перенос производится здесь&lt;/div&gt;" style="text;html=1;strokeColor=none;fillColor=none;spacing=5;spacingTop=-20;whiteSpace=wrap;overflow=hidden;rounded=0;" vertex="1" parent="WIyWlLk6GJQsqaUBKTNV-1">
          <mxGeometry x="240" y="590" width="190" height="85" as="geometry" />
        </mxCell>
        <mxCell id="YZCgXVp1-A0Gv4GDbvZ--27" value="&lt;h1&gt;5&lt;/h1&gt;&lt;div&gt;После проделанной работы выводим на экран наш новый массив.&lt;/div&gt;" style="text;html=1;strokeColor=none;fillColor=none;spacing=5;spacingTop=-20;whiteSpace=wrap;overflow=hidden;rounded=0;" vertex="1" parent="WIyWlLk6GJQsqaUBKTNV-1">
          <mxGeometry x="600" y="410" width="190" height="120" as="geometry" />
        </mxCell>
      </root>
    </mxGraphModel>
  </diagram>
</mxfile>
